<?xml version="1.0" standalone="no"?>
<!DOCTYPE svg PUBLIC "-//W3C//DTD SVG 20010904//EN"
 "http://www.w3.org/TR/2001/REC-SVG-20010904/DTD/svg10.dtd">
<svg version="1.0" xmlns="http://www.w3.org/2000/svg"
 width="960.000000pt" height="960.000000pt" viewBox="0 0 960.000000 960.000000"
 preserveAspectRatio="xMidYMid meet">
<metadata>
Created by potrace 1.14, written by Peter Selinger 2001-2017
</metadata>
<g transform="translate(0.000000,960.000000) scale(0.100000,-0.100000)"
fill="#000000" stroke="none">
<path d="M0 4800 l0 -2640 4800 0 4800 0 0 2640 0 2640 -4800 0 -4800 0 0
-2640z m3620 1286 c271 -41 454 -129 611 -292 73 -77 131 -159 176 -249 32
-62 96 -235 90 -241 -2 -2 -181 -35 -398 -74 -217 -38 -406 -72 -421 -76 -24
-5 -29 0 -59 63 -39 81 -122 169 -197 207 -87 44 -171 59 -307 53 -171 -7
-283 -50 -388 -151 -137 -133 -201 -316 -213 -611 -15 -366 53 -622 206 -769
127 -123 273 -172 490 -163 161 7 249 30 418 112 l132 65 0 140 0 140 -295 0
-295 0 0 295 0 295 685 0 685 0 0 -609 0 -609 -107 -69 c-393 -253 -663 -350
-1068 -383 -513 -41 -934 49 -1216 262 -365 275 -563 791 -520 1351 25 310
102 549 248 769 64 97 229 262 327 328 176 118 387 194 606 219 52 6 109 13
125 15 75 11 585 -3 685 -18z m3058 13 c358 -38 643 -163 853 -372 277 -275
403 -656 386 -1162 -15 -414 -109 -705 -305 -944 -200 -243 -462 -385 -827
-448 -141 -24 -507 -24 -661 0 -267 41 -482 124 -645 247 -195 146 -363 387
-443 633 -112 343 -108 841 10 1179 171 490 551 787 1104 862 127 17 395 20
528 5z"/>
<path d="M6276 5424 c-148 -36 -280 -145 -345 -286 -65 -139 -90 -283 -91
-508 0 -320 60 -528 191 -659 107 -107 232 -154 409 -154 291 0 480 143 550
417 31 123 42 231 42 421 0 221 -21 345 -82 473 -73 154 -209 264 -367 297
-85 18 -230 18 -307 -1z"/>
</g>
</svg>
